<svg
          xmlns="http://www.w3.org/2000/svg"
          width="109.1"
          height="110.264"
          viewBox="0 0 109.1 110.264"
        >
          <g id="pewdiepie" transform="translate(0.047 0.044)">
            <path
              id="Path_1"
              data-name="Path 1"
              d="M98.557,19.892A147.181,147.181,0,0,0,75,23.29a118.741,118.741,0,0,0-21.97,6.876A29.986,29.986,0,0,0,49.59,31.9,8.1,8.1,0,0,0,45.9,37.308a18.721,18.721,0,0,0,.127,3.941c.231,1.976.52,3.952.821,5.929,1.1,7.35,2.485,14.654,4,21.924q1.751,8.39,3.687,16.735c1.005,4.334,2.046,8.656,3.2,12.955q2.046,7.489,4.276,14.932c.508.994.832,2.08,1.271,3.12.716,1.9,1.456,3.768,2.254,5.64a37.681,37.681,0,0,0,2.08,4.5,6.615,6.615,0,0,0,5.178,2.831,70.836,70.836,0,0,0,7.177-.035c2.08-.092,4.161-.208,6.241-.381a202.241,202.241,0,0,0,21.82-3.525c2.6-.555,5.2-1.121,7.755-1.872a54.571,54.571,0,0,0,7.824-3.166,10.372,10.372,0,0,0,2.924-2.173,8.976,8.976,0,0,0,1.988-3.583,12.409,12.409,0,0,0,.809-4.484,45.859,45.859,0,0,0-.543-6.3c-.173-1.375-.543-2.727-.647-4.1a37.456,37.456,0,0,0,13.811-7.35,32.86,32.86,0,0,0,5.871-6.4,40.124,40.124,0,0,0,3.583-7.061,52.287,52.287,0,0,0,2.751-10.528c1.294-7.246.682-14.689-.763-21.866a31.729,31.729,0,0,0-1.329-4.935,53.591,53.591,0,0,0-2.566-5.628,30.457,30.457,0,0,0-3.063-4.681,28.136,28.136,0,0,0-3.929-3.941,29.522,29.522,0,0,0-4.854-3,33.841,33.841,0,0,0-5.571-2.046c-2.623-.728-5.293-1.329-7.974-1.814-2.716-.439-5.467-.532-8.205-.74-2.889-.208-5.779-.428-8.679-.462-2.889-.069-5.778.035-8.668.162Z"
              transform="translate(-45.852 -19.708)"
              fill="#fff"
              stroke="#fff"
              stroke-width="0.094"
            />
            <path
              id="Path_2"
              data-name="Path 2"
              d="M98.557,19.892c2.889-.127,5.779-.231,8.668-.162,2.9.035,5.79.254,8.679.462,2.739.208,5.49.3,8.205.74,2.681.485,5.351,1.086,7.974,1.814a33.835,33.835,0,0,1,5.57,2.046,29.522,29.522,0,0,1,4.854,3,28.135,28.135,0,0,1,3.929,3.941,30.46,30.46,0,0,1,3.063,4.681,53.6,53.6,0,0,1,2.566,5.628,31.736,31.736,0,0,1,1.329,4.935c1.445,7.177,2.057,14.62.763,21.866a52.281,52.281,0,0,1-2.751,10.528,40.127,40.127,0,0,1-3.583,7.061,32.848,32.848,0,0,1-5.871,6.4,37.458,37.458,0,0,1-13.811,7.35c.1,1.375.474,2.727.647,4.1a45.864,45.864,0,0,1,.543,6.3,12.411,12.411,0,0,1-.809,4.484,8.976,8.976,0,0,1-1.988,3.583,10.37,10.37,0,0,1-2.924,2.173A54.6,54.6,0,0,1,115.789,124c-2.554.751-5.155,1.317-7.755,1.872a202.243,202.243,0,0,1-21.82,3.525c-2.08.173-4.161.289-6.241.381a70.845,70.845,0,0,1-7.177.035,6.615,6.615,0,0,1-5.178-2.831,37.673,37.673,0,0,1-2.08-4.5c-.8-1.872-1.537-3.744-2.254-5.64-.439-1.04-.763-2.126-1.271-3.12q-2.236-7.437-4.276-14.932c-1.156-4.3-2.2-8.622-3.2-12.955Q52.6,77.5,50.85,69.1c-1.514-7.269-2.9-14.573-4-21.924-.3-1.976-.589-3.952-.821-5.929a18.721,18.721,0,0,1-.127-3.941A8.1,8.1,0,0,1,49.59,31.9a29.986,29.986,0,0,1,3.444-1.734A118.739,118.739,0,0,1,75,23.29a147.181,147.181,0,0,1,23.553-3.4M89.67,29.057a155,155,0,0,0-17.047,3.1A121.281,121.281,0,0,0,59.217,36.43c-1.1.416-2.207.821-3.271,1.318.543,7.789,1.491,15.556,2.8,23.241a325.37,325.37,0,0,0,7.4,33.885c1.433,4.993,2.993,9.951,4.6,14.885,1.19,3.687,2.415,7.362,3.825,10.968a103.184,103.184,0,0,0,11.649-.4q6.258-.607,12.482-1.456a84.144,84.144,0,0,0,8.991-1.606,93.971,93.971,0,0,0,9.211-2.8,3.475,3.475,0,0,0,2.3-2.15,15.989,15.989,0,0,0,.185-2.878c-.035-2.323,0-4.634-.081-6.946s-.1-4.634-.37-6.934a.558.558,0,0,1,.381-.728,84.052,84.052,0,0,0,8.4-3.409,40.022,40.022,0,0,0,8.263-5.5,24.481,24.481,0,0,0,3.71-3.791,19.358,19.358,0,0,0,2.935-5.651c.485-1.56.855-3.144,1.283-4.727a55.81,55.81,0,0,0,1.56-11.314,51.979,51.979,0,0,0-.52-8.471,52.5,52.5,0,0,0-1.491-7.547,19.738,19.738,0,0,0-2.635-5.547,19.382,19.382,0,0,0-3.779-4.114,34.242,34.242,0,0,0-3.617-2.381,26.7,26.7,0,0,0-6.772-2.647,72.986,72.986,0,0,0-9.361-1.317q-3.745-.4-7.512-.428A116.975,116.975,0,0,0,89.67,29.057Z"
              transform="translate(-45.852 -19.708)"
              fill="#e1dbd7"
              stroke="#e1dbd7"
              stroke-width="0.094"
            />
            <path
              id="Path_3"
              data-name="Path 3"
              d="M166.924,92.047a116.975,116.975,0,0,1,20.109-1.075q3.762.035,7.512.428a72.99,72.99,0,0,1,9.361,1.318,26.706,26.706,0,0,1,6.772,2.647,34.248,34.248,0,0,1,3.617,2.381,19.382,19.382,0,0,1,3.779,4.114,19.734,19.734,0,0,1,2.635,5.547,60.544,60.544,0,0,1,2.011,16.018,55.815,55.815,0,0,1-1.56,11.314c-.428,1.583-.8,3.167-1.283,4.727a19.358,19.358,0,0,1-2.935,5.651,24.49,24.49,0,0,1-3.71,3.791,40.029,40.029,0,0,1-8.263,5.5,84.061,84.061,0,0,1-8.4,3.409.558.558,0,0,0-.382.728c.266,2.3.289,4.623.37,6.934s.046,4.623.081,6.946a15.99,15.99,0,0,1-.185,2.878,3.476,3.476,0,0,1-2.3,2.15,93.949,93.949,0,0,1-9.211,2.8,84.144,84.144,0,0,1-8.991,1.606q-6.226.85-12.482,1.456a103.179,103.179,0,0,1-11.65.4c-1.41-3.606-2.635-7.281-3.825-10.967-1.606-4.935-3.167-9.893-4.6-14.886a325.311,325.311,0,0,1-7.4-33.885c-1.306-7.685-2.254-15.452-2.8-23.241,1.063-.5,2.173-.9,3.271-1.317a121.284,121.284,0,0,1,13.406-4.276,154.992,154.992,0,0,1,17.046-3.1m6.541,6.137a13.364,13.364,0,0,0-2.612.589,22.574,22.574,0,0,0-2.647,1.318c-1.422.763-2.67,1.8-4.08,2.612a7.955,7.955,0,0,1-3.1,1.052,12.648,12.648,0,0,1-3.571-.659c-.589-.127-1.167-.324-1.745-.485a10.009,10.009,0,0,0-2.184-.347,9.89,9.89,0,0,0-3.236.416,9.517,9.517,0,0,0-3.987,2.08,12.437,12.437,0,0,0-2.057,2.6,9.655,9.655,0,0,0-1.583,4.484,34.25,34.25,0,0,0,.324,4.057c.093,2.046.289,4.091.22,6.137-.081,2.265-.277,4.53-.22,6.8.046,1.468.035,2.935.162,4.4a22.991,22.991,0,0,0,.774,4.507,11.28,11.28,0,0,0,1.976,3.825,9.138,9.138,0,0,0,1.664,1.676,15.5,15.5,0,0,0,6.414,2.785,13.38,13.38,0,0,0,6.472-.462,14.147,14.147,0,0,0,3.016-1.433,9.14,9.14,0,0,0,1.664-1.237,5.146,5.146,0,0,0,.913-1.745,3.381,3.381,0,0,0,.15-1.791,28.464,28.464,0,0,1-1.167-4.8,45.6,45.6,0,0,1-.4-6.645,12.833,12.833,0,0,1,.173-3.19,1.669,1.669,0,0,0-.266-1.468c-.289-.324-.012-.728.243-.959a1.949,1.949,0,0,1,1.468-.243c.277.035.728.058.774.416.046.428-.035.855.012,1.283.15,1.537.289,3.074.451,4.611a51.468,51.468,0,0,0,.959,6.379,23.6,23.6,0,0,0,2.335,6.553,6.4,6.4,0,0,0,3.2,3.132,16.1,16.1,0,0,0,7.269.485,13.3,13.3,0,0,0,4.738-1.364,8.991,8.991,0,0,0,3.34-3.178,5.858,5.858,0,0,0,.774-2.277,14.951,14.951,0,0,0-.243-3.363c-.116-1.04-.254-2.08-.439-3.109-.428-2.623-.844-5.247-1.19-7.87-.069-.462.127-.959-.116-1.375-.243-.439-.855-.636-.878-1.179a2.172,2.172,0,0,1,.451-1.768,4.381,4.381,0,0,1,2.462-.324,1.609,1.609,0,0,1,.693.948,79.047,79.047,0,0,0,.821,10.182,36.15,36.15,0,0,0,2.034,7.188,5.039,5.039,0,0,0,1.78,2.485,9.175,9.175,0,0,0,2.646.774,10.1,10.1,0,0,0,5.339-.381,17.134,17.134,0,0,0,5.443-3.236,4.909,4.909,0,0,0,1.306-1.722,12.507,12.507,0,0,0,.659-2.335c.3-1.5.52-3,.705-4.519a60.364,60.364,0,0,0,.208-6.934,54.617,54.617,0,0,0-.717-8.795,29.611,29.611,0,0,0-1.341-4.981,7.84,7.84,0,0,0-2.751-3.86,24.946,24.946,0,0,0-5.513-2.785,10.467,10.467,0,0,0-4.715-.855c-2.092.1-4.161.509-6.229.763-1.318.162-2.612.52-3.929.624a5.688,5.688,0,0,1-2.485-.624c-1.1-.4-2.15-.936-3.224-1.387a22,22,0,0,0-3.19-1.352,13.247,13.247,0,0,0-4.218-.127m-3.525,47.222a8.82,8.82,0,0,0-1.687.578c-1.144.393-2.219.948-3.34,1.41a27.734,27.734,0,0,1-4.473,1.468,12.788,12.788,0,0,1-3.675.474,12.679,12.679,0,0,0-2.092-.046,1.83,1.83,0,0,0-1.11,1.317,7.955,7.955,0,0,0-1.179,3.906,10.219,10.219,0,0,0,2.138,5.224,14.02,14.02,0,0,0,1.849,2.427,4.851,4.851,0,0,0,3.04,1.121,71.281,71.281,0,0,0,9.026-.358c3.086-.289,6.16-.636,9.223-1.133a62.706,62.706,0,0,0,6.5-1.456,9.326,9.326,0,0,0,3.1-1.318,5.656,5.656,0,0,0,1.9-6.865,8.227,8.227,0,0,0-2.069-2.219c-.855-.647-1.734-1.271-2.646-1.849a4.59,4.59,0,0,0-2.589-.878c-.867.046-1.687.381-2.554.451a6.65,6.65,0,0,1-3.016-.116c-1.017-.347-1.976-.878-2.982-1.26a12.985,12.985,0,0,0-1.988-.844A3.617,3.617,0,0,0,169.941,145.406Z"
              transform="translate(-123.106 -82.699)"
              fill="#1d3245"
              stroke="#1d3245"
              stroke-width="0.094"
            />
            <path
              id="Path_4"
              data-name="Path 4"
              d="M245.738,152.882a13.251,13.251,0,0,1,4.218.127,22,22,0,0,1,3.19,1.352c1.075.451,2.127.982,3.224,1.387a5.689,5.689,0,0,0,2.485.624c1.317-.1,2.612-.462,3.929-.624,2.069-.254,4.137-.659,6.229-.763a10.468,10.468,0,0,1,4.715.855,24.945,24.945,0,0,1,5.513,2.785,7.84,7.84,0,0,1,2.751,3.86,29.635,29.635,0,0,1,1.341,4.981,54.6,54.6,0,0,1,.716,8.795,60.337,60.337,0,0,1-.208,6.934c-.185,1.514-.4,3.016-.705,4.519a12.5,12.5,0,0,1-.659,2.334,4.906,4.906,0,0,1-1.306,1.722,17.133,17.133,0,0,1-5.443,3.236,10.1,10.1,0,0,1-5.339.381,9.175,9.175,0,0,1-2.646-.774,5.039,5.039,0,0,1-1.78-2.485,36.156,36.156,0,0,1-2.034-7.189,79.053,79.053,0,0,1-.821-10.182,1.61,1.61,0,0,0-.693-.948,4.381,4.381,0,0,0-2.462.324,2.173,2.173,0,0,0-.451,1.768c.023.543.636.74.878,1.179.243.416.046.913.116,1.375.347,2.623.763,5.247,1.19,7.87.185,1.029.324,2.069.439,3.109a14.947,14.947,0,0,1,.243,3.363,5.857,5.857,0,0,1-.774,2.277,8.99,8.99,0,0,1-3.34,3.178,13.3,13.3,0,0,1-4.738,1.364,16.1,16.1,0,0,1-7.27-.485,6.4,6.4,0,0,1-3.2-3.132,23.6,23.6,0,0,1-2.335-6.553,51.464,51.464,0,0,1-.959-6.379c-.162-1.537-.3-3.074-.451-4.611-.046-.428.035-.855-.012-1.283-.046-.358-.5-.381-.774-.416a1.949,1.949,0,0,0-1.468.243c-.254.231-.532.636-.243.959a1.669,1.669,0,0,1,.266,1.468,12.835,12.835,0,0,0-.173,3.19,45.6,45.6,0,0,0,.4,6.645,28.455,28.455,0,0,0,1.167,4.8,3.381,3.381,0,0,1-.15,1.791,5.148,5.148,0,0,1-.913,1.745,9.137,9.137,0,0,1-1.664,1.237,14.14,14.14,0,0,1-3.016,1.433,13.381,13.381,0,0,1-6.472.462,15.5,15.5,0,0,1-6.414-2.785,9.133,9.133,0,0,1-1.664-1.676,11.281,11.281,0,0,1-1.976-3.825,22.992,22.992,0,0,1-.774-4.507c-.127-1.468-.116-2.935-.162-4.4-.058-2.265.139-4.53.22-6.8.069-2.046-.127-4.091-.22-6.137a34.274,34.274,0,0,1-.324-4.056,9.655,9.655,0,0,1,1.583-4.484,12.434,12.434,0,0,1,2.057-2.6,9.517,9.517,0,0,1,3.987-2.08,9.892,9.892,0,0,1,3.236-.416,10.01,10.01,0,0,1,2.184.347c.578.162,1.156.358,1.745.485a12.65,12.65,0,0,0,3.571.659,7.957,7.957,0,0,0,3.1-1.052c1.41-.809,2.658-1.849,4.08-2.612a22.575,22.575,0,0,1,2.647-1.318A13.381,13.381,0,0,1,245.738,152.882Z"
              transform="translate(-195.379 -137.397)"
              fill="#09bce0"
              stroke="#09bce0"
              stroke-width="0.094"
            />
            <path
              id="Path_5"
              data-name="Path 5"
              d="M316.7,561.922a3.612,3.612,0,0,1,1.364.035,12.978,12.978,0,0,1,1.988.844c1.005.381,1.965.913,2.982,1.259a6.651,6.651,0,0,0,3.017.116c.867-.069,1.687-.4,2.554-.451a4.588,4.588,0,0,1,2.589.878c.913.578,1.791,1.2,2.646,1.849a8.226,8.226,0,0,1,2.069,2.219,5.656,5.656,0,0,1-1.9,6.865,9.329,9.329,0,0,1-3.1,1.317,62.765,62.765,0,0,1-6.495,1.456c-3.063.5-6.137.844-9.223,1.133a71.314,71.314,0,0,1-9.026.358,4.85,4.85,0,0,1-3.04-1.121,14.017,14.017,0,0,1-1.849-2.427,10.219,10.219,0,0,1-2.138-5.224,7.958,7.958,0,0,1,1.179-3.906,1.829,1.829,0,0,1,1.11-1.317,12.668,12.668,0,0,1,2.092.046,12.787,12.787,0,0,0,3.675-.474,27.739,27.739,0,0,0,4.473-1.468c1.121-.463,2.2-1.017,3.34-1.41A8.821,8.821,0,0,1,316.7,561.922Z"
              transform="translate(-269.867 -499.214)"
              fill="#09bce0"
              stroke="#09bce0"
              stroke-width="0.094"
            />
          </g>
        </svg>